<svg width="39" height="41" viewBox="0 0 39 41" fill="none" xmlns="http://www.w3.org/2000/svg">
<path d="M8.72949 41H0.639648V13.6299H8.72949V41ZM29.3105 12.9404C37.4913 12.9404 39 18.6019 39 25.9609V41H30.918V27.667C30.918 24.496 30.8572 20.4202 26.7139 20.4199C22.5093 20.4199 21.8692 23.871 21.8691 27.4424V41H13.7949V13.6289H21.5488V17.3604H21.6631C22.7371 15.2064 25.3804 12.9406 29.3105 12.9404ZM4.68457 0C7.2668 0 9.36152 2.20215 9.36914 4.9248C9.36914 7.63945 7.27441 9.89746 4.68457 9.89746C2.09473 9.89746 0 7.64746 0 4.9248C0 2.20215 2.09473 0 4.68457 0Z" fill="white"/>
</svg>
