<svg width="37" height="42" viewBox="0 0 37 42" fill="none" xmlns="http://www.w3.org/2000/svg">
<path d="M35.6683 0C36.0502 0 36.3209 0.12443 36.472 0.380859C36.6629 0.652817 36.663 0.963866 36.472 1.32129L22.7562 25.0449V25.0684L31.4916 40.6865C31.6825 41.0284 31.6909 41.3395 31.516 41.627C31.341 41.8834 31.0619 42.0078 30.6801 42.0078H24.4672C23.7352 42.0078 23.1621 41.6268 22.7484 40.8652L13.934 25.0684C14.2442 24.5244 18.8504 16.5515 27.7367 1.14258C28.1663 0.381061 28.7236 0 29.3998 0H35.6683ZM9.53455 8.2832C10.2266 8.28324 10.7998 8.6643 11.2533 9.42578L15.517 16.6914C15.3404 16.9972 13.1128 20.8593 8.83435 28.2695C8.37297 29.0464 7.80803 29.4345 7.14783 29.4346V29.4424H0.93396C0.576395 29.4422 0.306178 29.2949 0.131226 29.0078C-0.0437635 28.7204 -0.0436956 28.4093 0.131226 28.0908L6.70251 16.7139C6.71805 16.7138 6.71799 16.7066 6.70251 16.6914L2.51794 9.60449C2.31114 9.23159 2.30272 8.92046 2.49353 8.66406C2.65264 8.40763 2.93169 8.2832 3.32947 8.2832H9.53455Z" fill="white"/>
</svg>
