<svg width="177" height="54" viewBox="0 0 177 54" fill="none" xmlns="http://www.w3.org/2000/svg">
<path d="M98.7544 25.8586C96.0649 28.6435 88.9081 35.4211 88.9081 35.4211C88.9081 35.4211 81.1555 28.1112 78.701 25.5449C77.6079 24.4048 76.5457 23.2004 75.4189 20.8422C74.0775 18.0403 74.0434 12.1807 74.0434 12.1807H78.8267C78.8267 12.1807 78.5581 18.6308 81.4994 21.6917C84.5093 24.8245 88.9355 29.2167 88.9355 29.2167C88.9355 29.2167 93.995 24.2238 96.0582 21.6917C99.1018 17.9547 98.942 12.1807 98.942 12.1807H103.828C103.828 12.1807 103.6 18.0199 102.255 21.0298C101.73 22.2036 100.188 24.3778 98.7579 25.8554L98.7544 25.8586Z" fill="#FF8831"/>
<path d="M94.873 35.0762C96.5924 36.7349 98.2543 38.3594 99.1699 39.3185C100.263 40.4581 101.325 41.663 102.452 44.0212C103.793 46.8226 103.828 52.6823 103.828 52.6823H99.0438C99.0438 52.6823 99.3129 46.2326 96.3711 43.1713C94.904 41.6421 93.0992 39.8167 91.6352 38.3457C91.6117 38.3217 91.5675 38.2707 91.5675 38.2707L94.8186 35.0283C94.8186 35.0283 94.8527 35.0625 94.8699 35.0762H94.873Z" fill="#FF8831"/>
<path d="M5.41485 23.5655C5.41485 29.5818 6.90632 32.0083 12.3468 32.0083H13.0722C16.4561 32.0083 18.3118 31.0803 19.2381 29.0596C19.3572 28.7766 19.6395 28.616 19.963 28.616C20.4468 28.616 20.811 28.9811 20.811 29.466C20.811 29.5853 20.7698 29.6674 20.7291 29.7867C19.6023 32.3326 17.3041 33.6262 13.0722 33.6262H12.3468C5.6565 33.6262 3.80124 30.4761 3.80124 24.0535V19.8112C3.80124 14.8423 7.63125 12.0542 12.5478 12.0542C18.3901 12.0542 21.5736 14.7607 21.5736 19.8112V21.9512C21.5736 22.8384 20.8482 23.5686 19.9599 23.5686H5.41131L5.41485 23.5655ZM19.963 21.9476V19.8081C19.963 15.8085 17.3448 13.6685 12.5478 13.6685C8.51639 13.6685 5.41485 15.8901 5.41485 19.8081V21.9476H19.963Z" fill="#F8F8F8"/>
<path d="M44.2248 26.07C44.2248 28.9779 42.2912 33.6225 36.8914 33.6225H33.9903C28.5905 33.6225 26.6569 28.9779 26.6569 26.07V18.7566C26.6569 14.5148 30.0001 12.0918 33.912 12.0918H36.9763C39.2339 12.0918 41.2901 12.9005 42.6178 14.3542V4.77843C42.6178 4.33482 42.9789 3.96973 43.425 3.96973C43.8707 3.96973 44.2319 4.33482 44.2319 4.77843V26.0669L44.2248 26.07ZM33.9089 13.7092C30.8852 13.7092 28.267 15.5249 28.267 18.7602V26.0736C28.267 28.3773 29.7585 32.0118 33.9903 32.0118H36.8914C41.1232 32.0118 42.6147 28.3773 42.6147 26.0736V18.7602C42.6147 15.5285 39.9964 13.7092 36.9728 13.7092H33.9089Z" fill="#F8F8F8"/>
<path d="M67.3597 26.07C67.3597 28.9779 65.4261 33.6225 60.0263 33.6225H57.1253C51.7255 33.6225 49.7919 28.9779 49.7919 26.07V18.7566C49.7919 14.5148 53.1386 12.0918 57.0469 12.0918H60.1113C62.3684 12.0918 64.425 12.9005 65.7527 14.3542V4.77843C65.7527 4.33482 66.117 3.96973 66.56 3.96973C67.0026 3.96973 67.3668 4.33482 67.3668 4.77843V26.0669L67.3597 26.07ZM57.0403 13.7092C54.0171 13.7092 51.3988 15.5249 51.3988 18.7602V26.0736C51.3988 28.3773 52.8899 32.0118 57.1222 32.0118H60.0228C64.2546 32.0118 65.7461 28.3773 65.7461 26.0736V18.7602C65.7461 15.5285 63.1279 13.7092 60.1047 13.7092H57.0403Z" fill="#F8F8F8"/>
<path d="M110.174 33.6263C109.731 33.6263 109.367 33.2644 109.367 32.8172C109.367 32.3705 109.731 32.0085 110.174 32.0085H116.987C120.936 32.0085 122.989 30.514 122.989 27.0396C122.989 24.2515 121.178 23.685 116.987 22.9579C112.915 22.2721 109.489 21.7877 109.489 17.3853C109.489 13.4673 112.472 12.0513 116.946 12.0513H122.788C123.231 12.0513 123.595 12.4164 123.595 12.86C123.595 13.3036 123.231 13.6687 122.788 13.6687H116.946C113.439 13.6687 111.103 14.638 111.103 17.3853C111.103 20.3748 113.926 20.8184 117.269 21.3849C122.39 22.2721 124.603 23.0023 124.603 27.0396C124.603 31.6434 121.985 33.6228 116.987 33.6228H110.174V33.6263Z" fill="#F8F8F8"/>
<path d="M138.102 33.626C133.71 33.626 130.364 30.7967 130.364 26.558V19.4903C130.364 15.2893 133.629 12.0576 138.102 12.0576H141.085C145.559 12.0576 148.861 15.2893 148.861 19.4903V26.558C148.861 30.8002 145.477 33.626 141.085 33.626H138.102ZM141.085 32.0117C144.551 32.0117 147.251 29.8309 147.251 26.558V19.4903C147.251 16.2178 144.633 13.6719 141.085 13.6719H138.102C134.558 13.6719 131.978 16.2178 131.978 19.4903V26.558C131.978 29.8309 134.64 32.0117 138.102 32.0117H141.085Z" fill="#F8F8F8"/>
<path d="M171.714 18.7196C171.714 15.4875 169.092 13.6687 166.031 13.6687H162.967C159.906 13.6687 157.285 15.4875 157.285 18.7196V32.8172C157.285 33.2612 156.921 33.6263 156.478 33.6263C156.035 33.6263 155.671 33.2644 155.671 32.8172V18.7196C155.671 14.4774 159.055 12.0513 162.964 12.0513H166.028C169.937 12.0513 173.321 14.4743 173.321 18.7196V32.8172C173.321 33.2612 172.956 33.6263 172.514 33.6263C172.071 33.6263 171.707 33.2644 171.707 32.8172V18.7196H171.714Z" fill="#F8F8F8"/>
<path d="M94.7438 7.44403C94.7438 10.6589 92.1428 13.266 88.9355 13.266C85.7282 13.266 83.1272 10.6589 83.1272 7.44403C83.1272 4.22918 85.7282 1.62207 88.9355 1.62207C92.1428 1.62207 94.7438 4.22918 94.7438 7.44403Z" fill="#F8F8F8"/>
</svg>
