<svg xmlns="http://www.w3.org/2000/svg" xmlns:xlink="http://www.w3.org/1999/xlink" width="276" zoomAndPan="magnify" viewBox="0 0 206.87999 62.249996" height="83" preserveAspectRatio="xMidYMid meet" version="1.0"><path fill="#ffffff" d="M 114.558594 29.070312 C 111.375 32.351562 102.90625 40.335938 102.90625 40.335938 C 102.90625 40.335938 93.730469 31.722656 90.828125 28.699219 C 89.535156 27.355469 88.277344 25.9375 86.941406 23.15625 C 85.355469 19.855469 85.316406 12.953125 85.316406 12.953125 L 90.976562 12.953125 C 90.976562 12.953125 90.65625 20.550781 94.140625 24.160156 C 97.699219 27.851562 102.9375 33.023438 102.9375 33.023438 C 102.9375 33.023438 108.925781 27.140625 111.367188 24.160156 C 114.96875 19.753906 114.78125 12.953125 114.78125 12.953125 L 120.5625 12.953125 C 120.5625 12.953125 120.292969 19.832031 118.699219 23.378906 C 118.078125 24.761719 116.253906 27.324219 114.5625 29.066406 Z M 114.558594 29.070312 " fill-opacity="1" fill-rule="nonzero"/><path fill="#ffffff" d="M 109.964844 39.929688 C 112 41.882812 113.964844 43.796875 115.050781 44.925781 C 116.34375 46.269531 117.601562 47.691406 118.933594 50.46875 C 120.519531 53.769531 120.5625 60.675781 120.5625 60.675781 L 114.902344 60.675781 C 114.902344 60.675781 115.21875 53.074219 111.738281 49.46875 C 110 47.667969 107.867188 45.515625 106.132812 43.78125 C 106.105469 43.753906 106.054688 43.691406 106.054688 43.691406 L 109.902344 39.875 C 109.902344 39.875 109.941406 39.914062 109.960938 39.929688 Z M 109.964844 39.929688 " fill-opacity="1" fill-rule="nonzero"/><path fill="#ffffff" d="M 4.101562 26.367188 C 4.101562 33.457031 5.867188 36.316406 12.304688 36.316406 L 13.164062 36.316406 C 17.167969 36.316406 19.363281 35.222656 20.460938 32.839844 C 20.601562 32.507812 20.9375 32.316406 21.320312 32.316406 C 21.890625 32.316406 22.320312 32.746094 22.320312 33.320312 C 22.320312 33.460938 22.273438 33.554688 22.226562 33.695312 C 20.890625 36.695312 18.171875 38.21875 13.164062 38.21875 L 12.304688 38.21875 C 4.386719 38.21875 2.191406 34.507812 2.191406 26.941406 L 2.191406 21.941406 C 2.191406 16.089844 6.726562 12.804688 12.542969 12.804688 C 19.457031 12.804688 23.222656 15.992188 23.222656 21.941406 L 23.222656 24.464844 C 23.222656 25.511719 22.367188 26.371094 21.3125 26.371094 L 4.097656 26.371094 Z M 21.320312 24.460938 L 21.320312 21.9375 C 21.320312 17.226562 18.21875 14.707031 12.542969 14.707031 C 7.773438 14.707031 4.101562 17.324219 4.101562 21.9375 L 4.101562 24.460938 Z M 21.320312 24.460938 " fill-opacity="1" fill-rule="nonzero"/><path fill="#ffffff" d="M 50.027344 29.316406 C 50.027344 32.742188 47.742188 38.214844 41.351562 38.214844 L 37.917969 38.214844 C 31.527344 38.214844 29.238281 32.742188 29.238281 29.316406 L 29.238281 20.699219 C 29.238281 15.703125 33.195312 12.847656 37.824219 12.847656 L 41.453125 12.847656 C 44.121094 12.847656 46.554688 13.800781 48.128906 15.511719 L 48.128906 4.230469 C 48.128906 3.707031 48.554688 3.277344 49.082031 3.277344 C 49.609375 3.277344 50.039062 3.707031 50.039062 4.230469 L 50.039062 29.3125 Z M 37.820312 14.753906 C 34.242188 14.753906 31.144531 16.894531 31.144531 20.703125 L 31.144531 29.320312 C 31.144531 32.035156 32.910156 36.320312 37.917969 36.320312 L 41.351562 36.320312 C 46.359375 36.320312 48.125 32.035156 48.125 29.320312 L 48.125 20.703125 C 48.125 16.898438 45.023438 14.753906 41.449219 14.753906 Z M 37.820312 14.753906 " fill-opacity="1" fill-rule="nonzero"/><path fill="#ffffff" d="M 77.40625 29.316406 C 77.40625 32.742188 75.117188 38.214844 68.726562 38.214844 L 65.296875 38.214844 C 58.90625 38.214844 56.617188 32.742188 56.617188 29.316406 L 56.617188 20.699219 C 56.617188 15.703125 60.578125 12.847656 65.203125 12.847656 L 68.828125 12.847656 C 71.5 12.847656 73.933594 13.800781 75.503906 15.511719 L 75.503906 4.230469 C 75.503906 3.707031 75.9375 3.277344 76.460938 3.277344 C 76.984375 3.277344 77.414062 3.707031 77.414062 4.230469 L 77.414062 29.3125 Z M 65.195312 14.753906 C 61.617188 14.753906 58.519531 16.894531 58.519531 20.703125 L 58.519531 29.320312 C 58.519531 32.035156 60.28125 36.320312 65.292969 36.320312 L 68.722656 36.320312 C 73.730469 36.320312 75.496094 32.035156 75.496094 29.320312 L 75.496094 20.703125 C 75.496094 16.898438 72.398438 14.753906 68.820312 14.753906 Z M 65.195312 14.753906 " fill-opacity="1" fill-rule="nonzero"/><path fill="#ffffff" d="M 128.070312 38.21875 C 127.546875 38.21875 127.117188 37.792969 127.117188 37.265625 C 127.117188 36.742188 127.546875 36.316406 128.070312 36.316406 L 136.132812 36.316406 C 140.808594 36.316406 143.238281 34.554688 143.238281 30.460938 C 143.238281 27.175781 141.09375 26.507812 136.132812 25.652344 C 131.316406 24.84375 127.261719 24.269531 127.261719 19.085938 C 127.261719 14.46875 130.792969 12.800781 136.085938 12.800781 L 143 12.800781 C 143.523438 12.800781 143.953125 13.230469 143.953125 13.753906 C 143.953125 14.273438 143.523438 14.707031 143 14.707031 L 136.085938 14.707031 C 131.933594 14.707031 129.171875 15.847656 129.171875 19.085938 C 129.171875 22.605469 132.511719 23.128906 136.46875 23.796875 C 142.527344 24.84375 145.144531 25.703125 145.144531 30.460938 C 145.144531 35.882812 142.046875 38.214844 136.132812 38.214844 L 128.070312 38.214844 Z M 128.070312 38.21875 " fill-opacity="1" fill-rule="nonzero"/><path fill="#ffffff" d="M 161.121094 38.21875 C 155.925781 38.21875 151.964844 34.886719 151.964844 29.894531 L 151.964844 21.566406 C 151.964844 16.617188 155.828125 12.808594 161.121094 12.808594 L 164.652344 12.808594 C 169.945312 12.808594 173.851562 16.617188 173.851562 21.566406 L 173.851562 29.894531 C 173.851562 34.890625 169.847656 38.21875 164.652344 38.21875 Z M 164.652344 36.320312 C 168.753906 36.320312 171.949219 33.75 171.949219 29.894531 L 171.949219 21.566406 C 171.949219 17.710938 168.847656 14.710938 164.652344 14.710938 L 161.121094 14.710938 C 156.925781 14.710938 153.875 17.710938 153.875 21.566406 L 153.875 29.894531 C 153.875 33.75 157.023438 36.320312 161.121094 36.320312 Z M 164.652344 36.320312 " fill-opacity="1" fill-rule="nonzero"/><path fill="#ffffff" d="M 200.894531 20.65625 C 200.894531 16.847656 197.792969 14.707031 194.171875 14.707031 L 190.546875 14.707031 C 186.921875 14.707031 183.820312 16.847656 183.820312 20.65625 L 183.820312 37.265625 C 183.820312 37.789062 183.390625 38.21875 182.867188 38.21875 C 182.34375 38.21875 181.910156 37.792969 181.910156 37.265625 L 181.910156 20.65625 C 181.910156 15.660156 185.917969 12.800781 190.542969 12.800781 L 194.167969 12.800781 C 198.792969 12.800781 202.796875 15.65625 202.796875 20.65625 L 202.796875 37.265625 C 202.796875 37.789062 202.367188 38.21875 201.84375 38.21875 C 201.320312 38.21875 200.886719 37.792969 200.886719 37.265625 L 200.886719 20.65625 Z M 200.894531 20.65625 " fill-opacity="1" fill-rule="nonzero"/><path fill="#ffffff" d="M 109.8125 7.371094 C 109.8125 11.160156 106.734375 14.230469 102.9375 14.230469 C 99.144531 14.230469 96.066406 11.160156 96.066406 7.371094 C 96.066406 3.582031 99.144531 0.511719 102.9375 0.511719 C 106.734375 0.511719 109.8125 3.582031 109.8125 7.371094 Z M 109.8125 7.371094 " fill-opacity="1" fill-rule="nonzero"/></svg>