<svg width="8" height="12" viewBox="0 0 8 12" fill="none" xmlns="http://www.w3.org/2000/svg">
  <path
    d="M6.21965 7.0126C6.51254 6.71971 6.9873 6.71971 7.2802 7.0126C7.57301 7.3055 7.57306 7.78028 7.2802 8.07315L4.63371 10.7196C4.14559 11.2076 3.35426 11.2076 2.86613 10.7196L0.21965 8.07315C-0.0732141 7.78028 -0.0731566 7.3055 0.21965 7.0126C0.512543 6.71971 0.987303 6.71971 1.2802 7.0126L3.74992 9.48233L6.21965 7.0126ZM2.86613 0.366116C3.35429 -0.122039 4.14556 -0.122038 4.63371 0.366116L7.2802 3.0126C7.57305 3.3055 7.57308 3.78027 7.2802 4.07315C6.98731 4.36599 6.51253 4.36599 6.21965 4.07315L3.74992 1.60342L1.2802 4.07315C0.987312 4.36599 0.512533 4.36599 0.21965 4.07315C-0.0732299 3.78027 -0.0732034 3.3055 0.21965 3.0126L2.86613 0.366116Z"
    fill="#949494"
  />
</svg>
