<svg width="121" height="46" viewBox="91 60.5 121 46" fill="none" xmlns="http://www.w3.org/2000/svg">
<g>
<g clip-path="url(#clip1_8_545)">
<mask id="mask0_8_545" style="mask-type:luminance" maskUnits="userSpaceOnUse" x="-84" y="71" width="125" height="25">
<path d="M41 71H-84V96H41V71Z" fill="white"/>
</mask>
<g mask="url(#mask0_8_545)">
<path d="M-72.1213 71L-76.2373 75.5151V77.5674L-78.9363 74.6258L-83.997 80.167V86.1188H-76.7096L-78.2616 87.8291V95.0121H-66.1159V87.8291L-72.1888 81.1248L-73.8756 83.0403V80.3039H-68.0727V75.5151L-72.1213 71ZM-64.4965 76.8149V95.0121H-50.7315V76.8149H-64.4965ZM-49.1121 76.8149V95.0121H-35.617V76.8149H-49.1121ZM-33.9976 76.8149V95.0121H-20.57V76.8149H-33.9976ZM-18.9506 76.8149V95.0121H-5.45551V76.8149H-18.9506ZM-3.83613 76.8149V95.0121H9.59149V76.8149H-3.83613ZM11.2109 76.8149V95.0121H24.706V76.8149H11.2109ZM26.3254 76.8149V95.0121H40.0224V76.8149H26.3254Z" fill="#6F6F6F"/>
<path d="M-72.1215 72.984L-74.9555 76.0625V78.8673H-69.355V76.0625L-72.1215 72.984ZM-78.8691 77.0202L-82.3778 80.9197V84.3402H-75.4278V80.9197L-78.8691 77.0202ZM38.4036 77.0887C37.6314 77.0887 36.9862 77.7536 36.9862 78.5937C36.9862 79.4529 37.6314 80.0987 38.4036 80.0987C39.1726 80.0987 39.7524 79.4529 39.7524 78.5937C39.7524 77.7536 39.1726 77.0887 38.4036 77.0887ZM38.4036 77.3623C39.0542 77.3623 39.5498 77.8822 39.5498 78.5937C39.5498 79.3243 39.0542 79.8935 38.4036 79.8935C37.7474 79.8935 37.1887 79.3243 37.1887 78.5937C37.1887 77.8822 37.7474 77.3623 38.4036 77.3623ZM37.796 77.7044V79.483H38.0659V78.7305H38.3352L38.8076 79.483H39.0774L38.6062 78.7305C38.8516 78.7004 39.0103 78.5663 39.0103 78.2516C39.0103 77.9178 38.8626 77.7044 38.4707 77.7044H37.796ZM38.0659 77.978H38.4036C38.5757 77.978 38.8076 77.9534 38.8076 78.1832C38.8076 78.4569 38.5598 78.5253 38.3352 78.5253H38.0659V77.978ZM-56.4673 79.7567L-61.7977 79.8251V91.8654H-56.4673C-54.6157 91.8654 -52.7561 90.6231 -52.7561 88.5816C-52.7561 87.2326 -53.6144 86.0231 -54.7804 85.5032C-53.7628 84.9914 -53.026 84.0009 -53.026 82.8352C-53.026 80.6953 -54.9126 79.7567 -56.4673 79.7567ZM-43.4445 79.8251L-47.358 91.8654H-45.0638L-44.2541 89.3342H-40.1382L-39.4634 91.8654H-37.1018L-40.9479 79.8251H-43.4445ZM-31.8387 79.8251V88.1028C-31.8387 91.1266 -29.7335 92.4127 -27.2504 92.4127C-24.7754 92.4127 -22.662 91.1238 -22.662 87.8976V79.8251H-24.8887V87.2134C-24.8887 87.8483 -24.9184 90.2235 -27.2504 90.2235C-29.5796 90.2235 -29.5445 87.8483 -29.5445 87.2134V79.8251H-31.8387ZM-16.7242 79.8251V91.8654H-14.4301V87.2134H-9.97668V91.8654H-7.68249V79.8251H-9.97668V85.1611H-14.4301V79.8251H-16.7242ZM1.83155 79.8251L-2.08202 91.8654H0.212166L0.954346 89.3342H5.13782L5.81263 91.8654H8.10682L4.32812 79.8251H1.83155ZM13.4374 79.8251V88.1028C13.4374 91.1266 15.5426 92.4127 18.0256 92.4127C20.5006 92.4127 22.614 91.1238 22.614 87.8976V79.8251H20.3198V87.2134C20.3198 87.8483 20.3577 90.2235 18.0256 90.2235C15.6937 90.2235 15.6641 87.8483 15.6641 87.2134V79.8251H13.4374ZM31.7907 79.8251C29.9257 79.8251 28.7543 81.352 28.7543 83.3825C28.7543 85.5032 30.3737 86.8769 32.1956 86.9398H34.6246C35.294 86.9398 35.8392 87.2245 35.8392 88.1712C35.8392 89.1754 35.2157 89.471 34.6246 89.471H29.2941V91.8654H34.962C36.8972 91.8599 38.1338 90.2837 38.1338 88.1712C38.1338 85.9793 36.4977 84.5728 34.6246 84.4771H32.1281C31.5397 84.4771 30.981 83.9379 30.981 83.314C30.981 82.5095 31.537 82.2195 32.1281 82.2195H37.3911V79.8251H31.7907ZM-59.5037 81.7406H-56.6697C-56.5482 81.7406 -55.3202 81.861 -55.3202 83.1088C-55.3202 84.228 -56.2405 84.7507 -56.6697 84.7507H-59.5037V81.7406ZM-42.2299 82.6299L-40.813 87.3503H-43.7144L-42.2299 82.6299ZM3.04614 82.6299L4.46314 87.3503H1.56165L3.04614 82.6299ZM-72.189 84.0665L-76.305 88.7185V92.8915H-68.0055V88.6501L-72.189 84.0665ZM-59.5037 86.5293H-56.6697C-56.4132 86.5293 -55.1177 86.7428 -55.1177 88.308C-55.1177 89.8759 -56.6318 89.8815 -56.6697 89.8815H-59.5037V86.5293Z" fill="white"/>
</g>
</g>
<path d="M154.771 97.7641V82.6442H160.572L165.665 90.3932V82.6442H171.112V97.7641H165.601L160.217 90.7454V97.7641H154.771Z" fill="#6F6F6F"/>
<path d="M173.034 82.6442V97.7641H186.598V94.4404H178.801V91.866H185.958V88.6501H178.801V86.3979H186.385V82.6442H173.034Z" fill="#6F6F6F"/>
<path d="M198.24 88.3826C198.24 88.9408 197.859 89.1852 197.454 89.1852H194.182V86.3979H197.413C198.005 86.3979 198.241 86.6886 198.241 87.2469V88.4358M203.159 92.6659C202.661 91.7677 202.381 91.2559 201.658 91.1548C201.658 91.1548 201.658 91.1658 201.658 91.163C203.546 90.9337 204.025 90.3891 204.007 88.8903V85.1953C204.007 83.6966 203.707 82.6442 202.044 82.6442H188.201V97.7641H194.182V91.866C194.182 91.866 196.191 91.866 196.203 91.866C196.704 91.8619 196.931 92.4093 197.056 92.6495C197.186 92.8993 199.635 97.7627 199.635 97.7627H205.9C205.9 97.7627 203.318 92.8734 203.191 92.6468" fill="#6F6F6F"/>
<path d="M143.556 86.3979H152.955V82.6442H137.382C136.433 82.6442 135.576 83.0687 136.051 84.8445L139.355 96.0292C139.571 96.896 139.894 97.7382 141.677 97.7641H152.956V88.6501H145.373V91.8674H147.508V94.3339H145.871C144.528 94.3339 144.288 93.4289 144.046 92.7532C144.036 92.73 142.67 87.9444 142.652 87.883C142.305 86.7637 142.795 86.4538 143.606 86.4538" fill="#6F6F6F"/>
<path d="M96.5239 82.6442L101.042 97.7641H106.094L108.477 90.9064L110.745 97.7641H115.559L120.346 82.6442H114.935L112.726 89.6111L110.514 82.6442H106.416L104.336 89.6111L101.904 82.6442H96.5239Z" fill="#6F6F6F"/>
<path d="M125.542 90.7945L126.861 86.3979H128.723L130.094 90.7945H125.542ZM133.229 82.6455H122.162L117.484 97.7655H123.45L124.638 93.9053H131.031L132.19 97.7655H138.017L133.229 82.6455Z" fill="#6F6F6F"/>
<path d="M122.648 81.144L132.939 81.1235L127.866 65.2583L122.648 81.144Z" fill="#6F6F6F"/>
<path d="M284.2 67.9737C284.2 69.2917 283.131 70.3598 281.811 70.3598C280.491 70.3598 279.422 69.2917 279.422 67.9737C279.422 66.6556 280.491 65.5875 281.811 65.5875C283.131 65.5875 284.2 66.6556 284.2 67.9737ZM268.522 101.413C268.959 101.416 269.317 101.066 269.32 100.629C269.32 100.624 269.32 100.619 269.32 100.615C269.327 100.571 269.327 100.527 269.32 100.482C269.005 97.6912 269.028 94.8726 269.39 92.0882C270.216 86.8504 272.627 82.91 274.614 83.2216C276.302 83.4852 278.566 86.5868 280.012 86.815C281.123 86.9885 281.735 86.1212 282.096 84.0398C282.797 79.336 280.901 71.1289 278.505 70.7546C274.336 70.103 263.417 74.2864 263.09 76.3816C262.847 77.9073 265.869 78.463 266.563 78.5463C267.258 78.6296 269.342 78.7335 269.487 77.9016C269.647 76.9305 267.945 76.8814 268.411 76.264C269.043 75.431 274.697 72.8783 277.282 73.2879C278.741 73.5173 279.366 77.7213 278.935 80.4965C278.845 81.0797 278.602 81.1561 278.241 81.1002C277.67 81.01 275.823 78.2006 273.607 77.8468C269.856 77.2568 266.8 83.5012 266.161 87.5454C265.454 92.0768 266.022 96.7144 267.801 100.942C267.924 101.219 268.193 101.401 268.496 101.414" fill="#6F6F6F"/>
<path d="M306.602 79.1226C306.351 79.1226 306.226 79.2264 306.226 79.4695V94.6763C306.226 94.9194 306.351 95.0232 306.602 95.0232H308.158C308.401 95.0232 308.526 94.9194 308.526 94.6763V89.6325H308.568C308.728 89.9588 308.921 90.2681 309.145 90.5557L312.389 94.7185C312.549 94.9194 312.653 95.0449 312.917 95.0449H314.722L314.744 95.0723C314.994 95.0723 315.112 94.9684 315.112 94.7254C315.116 94.6215 315.081 94.52 315.014 94.4412L310.701 89.1692L314.584 85.0964C314.66 85.0166 314.708 84.915 314.722 84.8054C314.722 84.5624 314.604 84.4585 314.354 84.4585H312.874C312.59 84.4585 312.486 84.6046 312.326 84.7849L308.589 89.0516H308.547V79.4706C308.547 79.2275 308.422 79.1237 308.178 79.1237H306.602V79.1226ZM317.056 79.1226C316.813 79.1226 316.687 79.2264 316.687 79.4695V94.6763C316.687 94.9194 316.813 95.0232 317.056 95.0232H318.633C318.883 95.0232 319.008 94.9194 319.008 94.6763V89.6325H319.05C319.209 89.9577 319.4 90.2669 319.62 90.5557L322.864 94.7185C323.031 94.9194 323.128 95.0449 323.399 95.0449H325.233C325.476 95.0449 325.6 94.9411 325.6 94.698C325.605 94.593 325.567 94.4903 325.496 94.4139L321.19 89.1406L325.037 85.0964C325.118 85.0188 325.17 84.9161 325.183 84.8054C325.183 84.5624 325.059 84.4585 324.816 84.4585H323.336C323.051 84.4585 322.946 84.6046 322.779 84.7849L319.05 89.0516H319.008V79.4706C319.008 79.2275 318.883 79.1237 318.633 79.1237H317.056V79.1226ZM344.702 79.1226C344.452 79.1226 344.348 79.2264 344.348 79.4695V94.698C344.348 94.9411 344.452 95.0449 344.702 95.0449H346.341V95.0791C346.584 95.0791 346.688 94.9753 346.688 94.7322V79.4695C346.688 79.2264 346.584 79.1226 346.341 79.1226H344.702ZM375.947 79.1226C375.697 79.1226 375.579 79.2264 375.579 79.4695V92.7489C375.579 93.4918 375.084 93.8787 374.057 93.8787C372.668 93.8787 371.147 92.5675 371.147 89.758C371.147 87.1767 372.272 85.4354 373.994 85.4354C374.158 85.4319 374.32 85.4433 374.481 85.4707H374.591C374.834 85.4707 374.938 85.3669 374.938 85.1238V84.6799C374.938 84.4996 374.882 84.3958 374.758 84.3547C374.377 84.2394 373.982 84.1812 373.584 84.1812C370.361 84.1812 368.784 87.1779 368.784 90.0227C368.784 92.8676 370.174 95.3085 373.994 95.3085C375.089 95.3393 376.174 95.1008 377.156 94.6147C377.687 94.3123 377.985 93.7223 377.913 93.1164V79.4706C377.913 79.2275 377.816 79.1237 377.566 79.1237H375.947V79.1226ZM288.937 80.3721C288.687 80.3721 288.583 80.476 288.583 80.7259V94.69C288.583 94.9399 288.687 95.0449 288.937 95.0449H294.606C294.856 95.0449 294.96 94.9399 294.96 94.69V93.6915C294.96 93.4416 294.856 93.3378 294.606 93.3378H291.167V80.7259C291.167 80.476 291.063 80.3721 290.812 80.3721H288.937ZM300.523 84.1596C298.085 84.1596 295.827 85.8599 295.827 89.669C295.827 93.6858 298.043 95.3085 300.523 95.3085C303.149 95.3085 304.607 93.0742 304.607 91.8394C304.611 91.5701 304.403 91.3442 304.135 91.3259C303.902 91.3465 303.698 91.4902 303.6 91.7014C303.108 92.7067 302.114 93.372 300.995 93.4427C299.029 93.4427 298.022 91.8817 297.876 89.2799C297.743 87.2258 298.633 85.457 300.28 85.457L300.265 85.4502C301.717 85.4502 302.232 86.6564 302.294 87.9253L298.737 88.5301C298.57 88.5644 298.494 88.6693 298.494 88.8702V89.3483C298.494 89.5914 298.598 89.6952 298.848 89.6952H298.959L303.904 88.9101C304.335 88.8131 304.516 88.6671 304.516 88.2163C304.59 86.0493 302.889 84.2326 300.72 84.1596C300.655 84.1573 300.588 84.1573 300.523 84.1584V84.1596ZM362.646 84.1641C361.495 84.1413 360.351 84.3501 359.281 84.7781C358.742 84.9549 358.4 85.4844 358.462 86.0481V94.7334C358.462 94.9764 358.587 95.0803 358.83 95.0803H360.456C360.699 95.0803 360.825 94.9764 360.825 94.7334V86.8241C360.825 86.1303 361.011 85.4365 362.651 85.4365C364.29 85.4365 364.784 86.4156 364.784 87.4221V94.7003C364.784 94.9433 364.888 95.0472 365.131 95.0472H366.792C367.042 95.0472 367.146 94.9433 367.146 94.7003V87.3182C367.146 84.8625 364.929 84.1675 362.756 84.1675C362.719 84.1664 362.684 84.1653 362.647 84.1653L362.646 84.1641ZM330.614 84.1664C328.176 84.1664 325.918 85.8735 325.918 89.6827C325.918 93.6995 328.134 95.3154 330.614 95.3154C333.24 95.3154 334.698 93.0742 334.698 91.8463C334.706 91.5758 334.497 91.3476 334.226 91.3328C333.993 91.3533 333.789 91.4971 333.691 91.7082C333.195 92.7158 332.194 93.3777 331.072 93.4427C329.106 93.4427 328.099 91.8817 327.953 89.2799C327.82 87.2258 328.716 85.457 330.356 85.457L330.371 85.4913C331.83 85.4913 332.336 86.6986 332.399 87.9687L328.842 88.5735C328.675 88.6077 328.605 88.7116 328.605 88.9124V89.3917C328.605 89.6348 328.703 89.7386 328.953 89.7386H329.064L334.024 88.9204C334.454 88.8234 334.634 88.6773 334.634 88.2266C334.708 86.0596 333.009 84.2417 330.838 84.1687C330.763 84.1664 330.687 84.1653 330.612 84.1675L330.614 84.1664ZM340.235 84.1664C339.159 84.1596 338.093 84.3604 337.095 84.7575C336.548 84.939 336.199 85.4742 336.254 86.047V94.6991C336.254 94.9422 336.38 95.046 336.63 95.046H338.249C338.492 95.046 338.617 94.9422 338.617 94.6991V86.4989C338.617 85.8473 339.11 85.4582 339.888 85.4582C341.09 85.4582 340.861 86.686 341.972 86.686H341.944C342.453 86.7203 342.893 86.3357 342.928 85.8268C342.931 85.7708 342.93 85.7149 342.923 85.659C342.923 84.8614 342.146 84.1675 340.236 84.1675L340.235 84.1664ZM353.092 84.1664C349.987 84.1664 348.779 85.8656 348.779 86.7682C348.775 87.2897 349.195 87.7142 349.717 87.7188C349.753 87.7188 349.791 87.7176 349.828 87.7131C350.294 87.7496 350.723 87.4632 350.87 87.0193C351.062 86.12 351.839 85.4639 352.758 85.4228C353.583 85.4137 354.259 86.0744 354.268 86.8983C354.268 86.9599 354.265 87.0204 354.259 87.082V92.9018C354.259 93.7828 353.418 94.0464 352.64 94.0464C351.636 94.1845 350.711 93.4838 350.573 92.4819C350.561 92.4032 350.556 92.3233 350.556 92.2434C350.556 90.7314 351.834 90.0992 353.389 89.7112C353.528 89.6701 353.591 89.5651 353.591 89.378V89.0528C353.591 88.8029 353.487 88.7059 353.244 88.7059H353.14V88.6922C350.827 89.1988 348.326 90.0787 348.326 92.4237C348.326 94.415 350.298 95.3165 352.675 95.3165C353.732 95.345 354.781 95.1271 355.738 94.6786C356.304 94.3385 356.61 93.6938 356.515 93.0422V87.2635C356.515 85.182 354.952 84.1687 353.091 84.1687L353.092 84.1664Z" fill="#6F6F6F"/>
<path d="M469.237 75.709C473.251 75.709 473.421 79.1982 473.421 79.1982C473.421 82.8591 470.333 82.8298 470.333 82.8298C474.796 82.8298 474.684 87.0841 474.684 87.0841C474.684 92.0505 468.761 91.8215 468.761 91.8215C468.761 91.8215 457.184 91.8215 458.054 91.8215C458.924 91.8215 459.221 90.3876 459.221 90.3876V77.2561C459.221 76.0916 458.054 75.7076 458.054 75.7076H469.238L469.237 75.709ZM464.253 78.4652V88.8545H467.199C467.199 88.8545 469.661 88.8545 469.661 86.6345C469.661 86.6345 469.398 84.6561 464.887 82.7069H466.754C466.754 82.7069 468.865 82.8158 468.865 80.5344C468.865 78.253 466.585 78.4666 466.585 78.4666L464.252 78.4554" fill="#6F6F6F"/>
<path d="M443.439 75.709C447.451 75.709 447.621 79.1982 447.621 79.1982C447.621 82.8591 444.532 82.8298 444.532 82.8298C448.995 82.8298 448.884 87.0841 448.884 87.0841C448.884 92.0505 442.961 91.8215 442.961 91.8215C442.961 91.8215 431.383 91.8215 432.253 91.8215C433.123 91.8215 433.42 90.3876 433.42 90.3876V77.2561C433.42 76.0916 432.253 75.7076 432.253 75.7076H443.437L443.439 75.709ZM438.455 78.4652V88.8545H441.403C441.403 88.8545 443.864 88.8545 443.864 86.6345C443.864 86.6345 443.601 84.6561 439.09 82.7069H441.093C441.093 82.7069 443.202 82.8158 443.202 80.5344C443.202 78.253 440.925 78.4666 440.925 78.4666L438.456 78.4554" fill="#6F6F6F"/>
<path d="M475.423 75.7718C475.423 75.7718 476.839 76.0161 476.839 77.2713V90.3959C476.839 90.3959 476.564 91.8242 475.434 91.8242C474.1 91.8242 481.873 91.8242 481.873 91.8242V78.4665H484.529C484.529 78.4665 486.871 78.5014 486.871 81.0104C486.871 83.5195 484.737 83.5558 484.737 83.5558H482.467C482.467 83.5558 483.476 84.4005 484.765 87.2865C485.623 89.2095 486.064 90.1832 486.088 90.2074C486.123 90.2437 486.957 91.8256 488.004 91.8256H493.035C493.035 91.8256 491.927 91.5129 491.269 89.9728C490.611 88.4314 489.849 86.6121 489.849 86.6121C489.849 86.6121 489.156 84.4061 487.356 84.4061C485.556 84.4061 487.254 84.4061 487.254 84.4061C487.254 84.4061 491.727 84.6169 491.727 79.8502C491.727 75.0835 485.171 75.7146 485.171 75.7146H475.581" fill="#6F6F6F"/>
<path d="M507.042 91.8229H513.315C513.315 91.8229 512.425 91.6176 511.741 89.7858C511.058 87.9525 507.397 77.5814 507.397 77.5814C507.397 77.5814 507.055 75.9213 505.651 75.9213H498.416C498.416 75.9213 500.018 76.2661 499.61 77.4725C499.38 78.1524 498.115 81.5536 497.051 84.4033H495.427C494.363 84.4033 494.192 85.2006 493.782 86.1724C493.369 87.1427 492.444 87.9763 492.444 87.9763C493.198 87.5253 494.877 87.6984 494.877 87.6984C494.877 87.6984 495.246 87.704 495.804 87.711C495.611 88.222 495.496 88.532 495.496 88.532C495.496 88.532 494.261 91.3398 493.712 91.8243H498.516L500.016 87.725C500.422 87.7194 500.751 87.7124 500.951 87.6984C502.049 87.63 502.393 87.0059 502.666 86.2422C502.941 85.4798 503.972 84.2986 503.972 84.2986C503.147 84.5416 501.465 84.4033 501.465 84.4033H501.248L502.829 80.0792L507.073 91.8648" fill="#6F6F6F"/>
<path d="M511.436 75.7719C511.436 75.7719 513.125 75.9115 513.125 77.2714V85.8931C513.125 85.8931 512.815 91.996 520.641 91.996C528.467 91.996 528.227 86.2757 528.227 86.2757V77.3496C528.227 77.3496 527.88 75.7104 526.538 75.7104H522.739C522.739 75.7104 524.243 76.0595 524.243 77.3496V86.1012C524.243 86.1012 524.383 88.8224 521.166 88.8224C521.166 88.8224 518.37 88.8922 518.37 85.928V77.3496C518.37 77.3496 518.265 75.7104 516.728 75.7104H511.449" fill="#6F6F6F"/>
<path d="M530.134 75.7719C530.134 75.7719 531.583 76.3304 531.583 77.4809V90.1851C531.583 90.1851 531.379 91.8243 530.157 91.8243C528.934 91.8243 535.36 91.8243 535.36 91.8243V83.4567L541.649 90.5719C541.649 90.5719 542.261 91.8243 544.299 91.8243H546.686V77.5325C546.686 77.5325 546.583 75.7104 544.849 75.7104H541.313C541.313 75.7104 542.7 76.0958 542.7 77.3217V84.152L535.353 75.7104H529.905" fill="#6F6F6F"/>
<path d="M453.241 73.3773V93.7315" stroke="#6F6F6F" stroke-width="3.09"/>
<g clip-path="url(#clip2_8_545)">
<mask id="mask1_8_545" style="mask-type:luminance" maskUnits="userSpaceOnUse" x="600" y="71" width="121" height="25">
<path d="M720.889 71H600V95.8739H720.889V71Z" fill="white"/>
</mask>
<g mask="url(#mask1_8_545)">
<path d="M705.194 82.9751C705.386 83.0247 705.603 83.1688 705.772 83.2916L720.889 95.8691H711.26L696.961 82.9751L710.008 71H719.131L705.772 82.6561C705.603 82.8144 705.386 82.9207 705.194 82.9751Z" fill="#6F6F6F"/>
<path d="M658.543 71C658.543 71 670.964 71.0071 674.936 71.0071C683.192 71.0071 688.488 76.3721 688.488 83.431C688.488 91.3049 681.989 95.8739 675.104 95.8739C670.988 95.8739 658.543 95.8739 658.543 95.8739V71ZM665.018 90.6388C665.018 90.6388 669.712 90.6434 674.719 90.6388C680.087 90.627 682.157 87.5227 682.157 83.431C682.157 79.7031 680.52 76.1217 674.31 76.117C668.412 76.1123 665.018 76.117 665.018 76.117V90.6388Z" fill="#6F6F6F"/>
<path d="M629.271 86.7667L620.004 81.5104V71L629.271 86.7667ZM600 86.7667L609.292 81.5104V71L600 86.7667ZM614.636 90.6151L605.368 95.8739H623.927L614.636 90.6151ZM620.004 71H609.292L614.636 76.2563L620.004 71ZM620.004 81.5104L614.636 90.6151L621.953 88.6898L620.004 81.5104ZM609.292 81.5104H620.004L614.636 76.2563L609.292 81.5104ZM621.953 88.6898L623.927 95.8739L629.271 86.7667L621.953 88.6898ZM609.292 81.5104L614.636 90.6151L607.318 88.6898L609.292 81.5104ZM607.318 88.6898L605.368 95.8739L600 86.7667L607.318 88.6898Z" fill="#6F6F6F"/>
<path d="M657.026 71H627.249V76.2824H638.755V95.8739H645.544V76.2824H657.026V71Z" fill="#6F6F6F"/>
<path d="M696.768 95.8739V71H689.98V95.8739H696.768Z" fill="#6F6F6F"/>
</g>
</g>
<g clip-path="url(#clip3_8_545)">
<mask id="mask2_8_545" style="mask-type:luminance" maskUnits="userSpaceOnUse" x="765" y="48" width="85" height="63">
<path d="M849.174 48.2405H765.174V110.162H849.174V48.2405Z" fill="white"/>
</mask>
<g mask="url(#mask2_8_545)">
<path d="M807.214 63.5433C807.71 62.6677 808.103 61.7448 808.395 60.7825C808.725 59.6229 808.906 58.4318 808.946 57.2329C808.946 57.2329 808.158 56.7596 807.45 56.3652C807.048 56.1206 806.631 55.9077 806.19 55.7341C805.19 56.4519 804.269 57.2723 803.435 58.1794C802.569 59.1891 801.829 60.3013 801.231 61.4924C801.231 61.4924 800.443 61.2558 799.735 61.0191C799.318 60.9166 798.9 60.8377 798.475 60.7825C798.507 59.4021 798.373 58.0296 798.082 56.6807C797.798 55.4817 797.373 54.3143 796.822 53.21H795.169C794.46 53.21 793.752 53.2888 793.752 53.2888C793.208 54.5036 792.791 55.7736 792.492 57.0751C792.256 58.3214 792.177 59.5914 792.256 60.8614L790.996 61.1769C790.54 61.2873 790.099 61.4135 789.658 61.5713C789.123 60.5853 788.493 59.6624 787.769 58.8105C786.784 57.7061 785.674 56.728 784.462 55.8919C784.462 55.8919 783.675 56.2863 783.045 56.6807C782.415 57.0751 781.864 57.4695 781.864 57.4695C781.809 58.7 781.998 59.9385 782.415 61.098C782.88 62.3995 783.486 63.638 784.226 64.8054C784.226 64.8054 783.675 65.2866 783.124 65.8308C782.573 66.3751 782.258 66.7774 782.258 66.7774C781.211 66.0754 780.069 65.5153 778.873 65.1209C777.621 64.7502 776.322 64.5372 775.015 64.4977L774.228 65.7598C773.834 66.4698 773.519 67.1718 773.519 67.1718C774.165 68.2761 774.984 69.27 775.96 70.0983C776.983 70.9265 778.093 71.6364 779.266 72.2201C779.266 72.2201 779.03 72.9301 778.873 73.5611C778.77 73.9792 778.691 74.3972 778.636 74.8232C777.314 74.7916 775.999 74.8942 774.7 75.1387C773.464 75.3832 772.267 75.8092 771.157 76.4008C771.157 76.4008 771.079 77.1896 771.079 78.0494C771.079 78.9092 771.157 79.556 771.157 79.556C772.205 80.1713 773.354 80.5972 774.543 80.8181C775.897 81.0547 777.267 81.1336 778.636 81.0547C778.691 81.5123 778.802 81.9619 778.951 82.3957C779.054 82.8532 779.187 83.2949 779.345 83.7367C778.164 84.3835 777.054 85.1486 776.038 86.0321C775.141 86.8603 774.377 87.8148 773.755 88.8639L774.543 90.2838C774.779 90.7176 775.046 91.1436 775.33 91.5458C776.511 91.4985 777.676 91.2855 778.794 90.9148C780.116 90.4573 781.384 89.8499 782.573 89.1005C782.573 89.1005 783.045 89.5738 783.517 90.126C783.864 90.4652 784.234 90.7807 784.62 91.0726C783.95 92.1374 783.399 93.2812 782.966 94.4644C782.541 95.6871 782.273 96.957 782.179 98.2507L785.013 99.8283C786.107 99.0553 787.115 98.156 788.005 97.1463C788.776 96.2313 789.438 95.2217 789.973 94.1489C789.973 94.1489 790.603 94.3855 791.232 94.5433L792.649 94.8588C792.618 96.184 792.72 97.5013 792.964 98.8028C793.248 100.002 793.673 101.169 794.224 102.274C794.224 102.274 795.011 102.352 795.799 102.352C796.586 102.352 797.53 102.274 797.53 102.274C797.53 102.274 798.16 101.564 798.633 98.724C798.829 97.4224 798.908 96.0972 798.869 94.7799C799.325 94.7247 799.774 94.6143 800.207 94.4644C800.64 94.3461 801.065 94.1883 801.467 93.9911C802.12 95.1033 802.852 96.1525 803.671 97.1463C804.506 98.156 805.49 99.0316 806.584 99.7494C807.041 99.5364 807.489 99.2998 807.922 99.0395C808.631 98.6451 809.339 98.1718 809.339 98.1718C809.284 96.8782 809.017 95.6003 808.552 94.3855C808.119 93.2023 807.568 92.0586 806.899 90.9937C806.899 90.9937 807.292 90.6782 807.765 90.2049C808.237 89.7316 808.867 89.0217 808.867 89.0217C809.788 89.6212 810.764 90.1181 811.78 90.5204C813.157 91.0962 814.622 91.4117 816.11 91.467L816.897 90.2128C817.196 89.7079 817.456 89.1794 817.684 88.6352C816.842 87.3731 815.803 86.253 814.614 85.3143C813.779 84.6517 812.882 84.0759 811.937 83.5789C812.158 83.011 812.339 82.4352 812.488 81.8435C812.575 81.5044 812.622 81.1652 812.646 80.8181L805.954 83.1845C804.025 87.0339 800.097 89.4713 795.799 89.4949C795.137 89.4792 794.484 89.4318 793.83 89.3372C792.516 89.069 791.24 88.6194 790.052 87.9962C787.147 86.4265 785.076 83.6578 784.383 80.4237C783.321 76.5507 784.407 72.4016 787.217 69.5382C787.965 68.7888 788.808 68.1578 789.737 67.653C792.461 66.1069 795.688 65.7125 798.711 66.5486L807.214 63.5433Z" fill="#6F6F6F"/>
</g>
<path d="M793.358 70.1771L797.373 68.8283L802.648 75.612V66.9351L806.663 65.6021V81.2204L802.648 82.6323L797.373 75.8565V84.4545L793.358 85.8664V70.1771Z" fill="#6F6F6F"/>
<mask id="mask3_8_545" style="mask-type:luminance" maskUnits="userSpaceOnUse" x="771" y="52" width="84" height="63">
<path d="M855 52.5H771V114.421H855V52.5Z" fill="white"/>
</mask>
<g mask="url(#mask3_8_545)">
<path d="M811.071 71.3524C811.071 75.4542 813.748 75.0598 814.693 74.902C815.48 74.7443 817.92 73.8766 818.235 70.1692C818.55 66.0674 815.795 65.8308 814.535 66.2252C813.59 66.5486 811.071 67.6529 811.071 71.3524ZM807.214 71.9046C807.127 69.7117 807.828 67.5583 809.182 65.8308C810.583 64.127 812.528 62.9595 814.693 62.5178C817.133 62.1234 818.944 62.6756 820.203 63.7799C821.463 64.8842 822.171 66.6196 822.171 69.0649C822.203 70.5794 821.912 72.086 821.306 73.4822C820.723 74.6733 819.888 75.7224 818.865 76.5585C817.692 77.4735 816.314 78.0967 814.85 78.3728C813.512 78.6489 812.118 78.5384 810.835 78.0573C809.741 77.7339 808.812 77.0003 808.237 76.0064C807.466 74.7837 807.103 73.3481 807.214 71.9046Z" fill="#6F6F6F"/>
</g>
<mask id="mask4_8_545" style="mask-type:luminance" maskUnits="userSpaceOnUse" x="771" y="52" width="84" height="63">
<path d="M855 52.5H771V114.421H855V52.5Z" fill="white"/>
</mask>
<g mask="url(#mask4_8_545)">
<path d="M826.974 65.042L828.784 64.4109C829.509 64.1506 830.139 63.6852 830.595 63.07C830.753 62.7544 830.839 62.3995 830.831 62.0445C830.871 61.6659 830.721 61.2873 830.438 61.027C829.918 60.8455 829.336 60.9007 828.863 61.1847L826.974 61.8158V65.042ZM822.644 75.6198V59.9936L829.808 57.4694C830.792 57.075 831.823 56.8384 832.878 56.7595C833.563 56.7595 834.201 57.0908 834.61 57.6351C835.114 58.3214 835.39 59.1496 835.397 60.0015C835.374 61.027 835.185 62.0366 834.846 62.999C834.358 64.1585 833.532 65.1445 832.485 65.8387C832.485 65.8387 832.406 65.7598 832.799 65.8387C833.469 65.9885 834.043 66.4145 834.374 67.0219L836.421 70.8081L831.54 72.4646L829.729 68.7493C829.493 68.2761 829.099 67.1717 827.84 67.5661C827.533 67.7002 827.218 67.8028 826.895 67.8817V74.1132L822.644 75.6198Z" fill="#6F6F6F"/>
</g>
<mask id="mask5_8_545" style="mask-type:luminance" maskUnits="userSpaceOnUse" x="771" y="52" width="84" height="63">
<path d="M855 52.5H771V114.421H855V52.5Z" fill="white"/>
</mask>
<g mask="url(#mask5_8_545)">
<path d="M843.349 56.2862C842.089 56.7595 841.144 57.075 841.144 57.075V65.3653C841.144 65.3653 842.876 64.8053 843.742 64.4109C845.947 63.6221 846.025 60.7824 845.868 58.3371C845.789 57.7928 845.632 55.4974 843.349 56.2862ZM836.814 55.032L843.191 52.8155C844.451 52.3501 849.647 51.4824 849.568 58.1005C849.568 66.1542 847.442 66.8641 843.9 68.1262L836.814 70.7213V55.032Z" fill="#6F6F6F"/>
</g>
<mask id="mask6_8_545" style="mask-type:luminance" maskUnits="userSpaceOnUse" x="771" y="52" width="84" height="63">
<path d="M855 52.5H771V114.421H855V52.5Z" fill="white"/>
</mask>
<g mask="url(#mask6_8_545)">
<path d="M844.923 114.106C845.569 114.39 846.269 114.524 846.97 114.5C848.702 114.5 849.962 113.64 849.962 111.818C849.962 110.556 849.489 110.004 848.387 109.373L847.442 108.829C846.97 108.513 846.498 108.276 846.498 107.645C846.498 107.014 846.891 106.612 847.757 106.612C848.332 106.62 848.891 106.762 849.41 107.006L849.489 105.673C848.883 105.468 848.245 105.358 847.6 105.358C846.104 105.358 844.766 106.218 844.766 107.795C844.718 108.821 845.317 109.767 846.261 110.162L847.127 110.635C847.915 111.108 848.308 111.345 848.308 111.976C848.332 112.654 847.804 113.214 847.135 113.246C847.08 113.246 847.025 113.246 846.97 113.246C846.301 113.254 845.64 113.064 845.081 112.694L844.923 114.114V114.106ZM841.853 114.35H843.349V105.35H840.987L839.097 112.055L837.287 105.35H834.846V114.342H836.342V106.849L838.468 114.342H839.649L841.932 106.849V114.342H841.853V114.35ZM828.47 114.35H833.272V113.009H830.044V110.327H832.957V108.986H830.044V106.62H833.114V105.279H828.391V114.35H828.47ZM823.746 114.35H825.399V106.699H827.367V105.35H821.699V106.691H823.667V114.342H823.746V114.35ZM815.952 114.106C816.598 114.39 817.298 114.524 817.999 114.5C819.731 114.5 820.991 113.64 820.991 111.818C820.991 110.556 820.518 110.004 819.416 109.373L818.471 108.829C817.999 108.513 817.527 108.276 817.527 107.645C817.527 107.014 817.92 106.612 818.786 106.612C819.361 106.62 819.92 106.762 820.44 107.006L820.518 105.673C819.912 105.468 819.274 105.358 818.629 105.358C817.133 105.358 815.795 106.218 815.795 107.795C815.747 108.821 816.346 109.767 817.291 110.162L818.156 110.635C818.944 111.108 819.337 111.345 819.337 111.976C819.361 112.654 818.834 113.214 818.164 113.246C818.109 113.246 818.054 113.246 817.999 113.246C817.33 113.254 816.669 113.064 816.11 112.694L815.952 114.114V114.106ZM811.465 114.35H813.118V110.801L815.795 105.35H813.984L812.331 108.978L810.599 105.429H808.867L811.544 110.801V114.35H811.465ZM803.12 114.106C803.765 114.39 804.466 114.524 805.167 114.5C806.899 114.5 808.158 113.64 808.158 111.818C808.158 110.556 807.686 110.004 806.584 109.373L805.639 108.829C805.167 108.513 804.694 108.276 804.694 107.645C804.694 107.014 805.088 106.612 805.954 106.612C806.529 106.62 807.088 106.762 807.607 107.006L807.686 105.673C807.08 105.468 806.442 105.358 805.797 105.358C804.301 105.358 802.962 106.218 802.962 107.795C802.915 108.821 803.514 109.767 804.458 110.162L805.324 110.635C806.112 111.108 806.505 111.345 806.505 111.976C806.529 112.654 806.001 113.214 805.332 113.246C805.277 113.246 805.222 113.246 805.167 113.246C804.498 113.254 803.836 113.064 803.277 112.694L803.12 114.114V114.106ZM797.058 114.35H801.86V113.009H798.633V110.327H801.545V108.986H798.633V106.62H801.703V105.279H796.979V114.35H797.058ZM791.705 114.35H793.437L796.192 105.35H794.46L792.571 112.291L790.76 105.35H789.028L791.705 114.35ZM786.43 114.35H788.005V105.35H786.43V114.35ZM780.919 109.302V106.612H781.549C782.494 106.612 783.045 106.857 783.045 107.874C783.045 108.892 782.415 109.215 781.549 109.215H780.919V109.302ZM779.266 114.35H780.919V110.485H781.313C781.911 110.43 782.455 110.832 782.573 111.424L783.439 114.342H785.171L783.99 110.95C783.675 110.083 783.36 109.925 782.966 109.925C784.013 109.783 784.769 108.852 784.698 107.795C784.698 106.139 783.596 105.429 782.022 105.429H779.187V114.35H779.266ZM772.968 106.612H773.519C775.33 106.612 776.196 107.874 776.196 109.846C776.196 111.818 775.33 113.08 773.519 113.08H772.968V106.612ZM771.315 114.35H773.677C776.196 114.35 777.928 112.851 777.928 109.854C777.928 106.857 776.432 105.35 773.677 105.35H771.315V114.35Z" fill="#6F6F6F"/>
</g>
<mask id="mask7_8_545" style="mask-type:luminance" maskUnits="userSpaceOnUse" x="771" y="52" width="84" height="63">
<path d="M855 52.5H771V114.421H855V52.5Z" fill="white"/>
</mask>
<g mask="url(#mask7_8_545)">
<path d="M846.025 70.8082H846.498C846.734 70.8082 846.813 70.8082 846.891 70.8871C846.978 70.8871 847.041 70.9581 847.049 71.0448C847.049 71.1237 847.127 71.2026 847.127 71.2815C847.127 71.4077 847.064 71.5181 846.97 71.597C846.891 71.6759 846.734 71.6759 846.498 71.6759H845.947V70.8082H846.025ZM846.025 73.0878V71.9046H846.261C846.419 71.9046 846.498 71.9046 846.576 71.9914C846.655 72.0782 846.813 72.299 847.049 72.6145L847.285 73.0089H847.836L847.521 72.4568C847.364 72.2201 847.206 72.0624 847.127 71.9046C847.049 71.7469 846.97 71.8257 846.891 71.7469C847.104 71.7469 847.301 71.668 847.442 71.5102C847.584 71.3919 847.671 71.2184 847.679 71.0369C847.679 70.8792 847.6 70.8003 847.521 70.6425C847.442 70.4848 847.364 70.4059 847.206 70.4059C846.978 70.3349 846.734 70.3033 846.498 70.327H845.553V73.0089H846.025V73.0878ZM847.679 69.9326C848.009 70.114 848.285 70.3901 848.466 70.7214C848.647 71.029 848.733 71.3919 848.702 71.7469C848.702 72.1018 848.623 72.4568 848.466 72.7723C848.269 73.0878 847.993 73.3639 847.679 73.5611C847.033 73.8766 846.277 73.8766 845.632 73.5611C845.317 73.3639 845.041 73.0878 844.844 72.7723C844.687 72.4568 844.6 72.1018 844.608 71.7469C844.592 71.3761 844.703 71.0133 844.923 70.7214C845.144 70.4217 845.411 70.1535 845.71 69.9326C846.025 69.7748 846.38 69.696 846.734 69.7039C847.064 69.6329 847.419 69.7117 847.679 69.9326ZM845.474 69.5382C845.088 69.7748 844.758 70.0983 844.53 70.4927C844.309 70.8713 844.199 71.313 844.215 71.7547C844.207 72.1965 844.317 72.6303 844.53 73.0168C844.758 73.4033 845.088 73.7346 845.474 73.9634C846.261 74.3815 847.206 74.3815 847.993 73.9634C848.379 73.7268 848.71 73.4033 848.938 73.0089C849.159 72.6303 849.269 72.1886 849.253 71.7469C849.261 71.3051 849.151 70.8713 848.938 70.4848C848.702 70.0983 848.379 69.767 847.993 69.5303C847.631 69.3252 847.23 69.2148 846.813 69.2227C846.348 69.2227 845.891 69.3173 845.474 69.5303" fill="#6F6F6F"/>
</g>
</g>
<path d="M920.998 70.4737C922.31 69.957 923.841 70.5965 925.116 71.0624C931.221 73.5739 931.809 83.4323 926.201 86.8078C924.339 87.8017 922.184 88.5273 920.051 88.252C918.799 88.1038 917.877 87.1876 917.007 86.3617C916.896 90.4106 920.56 93.556 924.391 93.8836C924.357 92.1683 925 90.3443 926.553 89.4549C928.471 88.1673 931.102 88.7222 932.622 90.3782C931.689 92.7231 929.508 94.4864 927.107 95.1485C922.496 96.1452 917.145 93.3019 915.867 88.6473C915.272 86.2953 915.863 83.7951 916.889 81.6506C917.566 80.2247 919.089 79.6078 920.519 79.228C917.082 77.1259 912.54 78.6506 910.292 81.7734C912.231 82.6742 913.521 84.9033 912.897 87.0323C912.511 88.8633 910.916 90.1099 909.181 90.5786C907.557 88.7363 907.253 85.9904 907.766 83.661C909.017 79.4822 913.444 76.5231 917.769 76.8619C920.719 77.0963 923.142 79.2139 924.714 81.5913C925.577 82.8972 925.334 84.5165 924.959 85.9424C928.482 84.0069 929.597 79.3212 927.914 75.7904C926.676 76.4977 925.175 77.0031 923.778 76.4567C921.407 75.7382 919.794 72.7283 920.998 70.4765M922.095 71.596C921.772 73.3523 923.151 75.076 924.889 75.2723C925.725 75.4318 926.508 75.0266 927.248 74.7033C926.138 72.909 924.127 71.908 922.095 71.596ZM919.803 80.8699C917.792 81.5363 917.071 84.364 918.547 85.9057C919.97 87.6916 923.125 87.0563 923.782 84.8751C924.763 82.5485 922.158 79.8732 919.803 80.8713M909.607 89.0694C911.178 88.5443 912.033 86.6765 911.472 85.132C911.215 84.1833 910.402 83.565 909.584 83.1189C908.73 85.0205 908.871 87.1565 909.607 89.0694ZM926.7 91.1123C925.98 91.845 925.864 92.9094 925.816 93.885C927.874 93.7142 929.58 92.4266 930.885 90.9033C929.734 89.8205 927.73 89.9024 926.701 91.1123H926.7Z" fill="#6F6F6F"/>
<path d="M954.746 77.2064C958.28 75.974 962.643 77.6271 964.222 81.0845C965.407 83.5707 964.86 86.7231 962.932 88.6798C960.479 91.3029 956.173 91.7984 953.129 89.942C950.956 88.6728 949.495 86.198 949.652 83.6525C949.715 80.6864 951.966 78.0634 954.746 77.2064ZM955.459 79.0375C952.955 79.9721 951.539 83.0045 952.416 85.5358C953.1 87.8427 955.545 89.4845 957.946 89.0822C961.09 88.7208 963.204 85.0445 962.007 82.1236C961.156 79.526 958.009 77.9448 955.459 79.0389V79.0375Z" fill="#6F6F6F"/>
<path d="M965.474 83.9984C965.358 80.6497 968.067 77.6836 971.263 77.0201C974.574 76.197 978.42 77.7711 979.943 80.8911C980.419 82.1942 978.449 81.6055 977.729 81.6916C976.763 79.9311 974.912 78.5433 972.832 78.7001C969.982 78.789 967.667 81.6182 968.035 84.4276C968.191 87.141 970.829 89.4549 973.556 89.1062C975.612 88.9833 977.202 87.3796 977.993 85.5782C978.806 85.5852 979.628 85.6008 980.427 85.7829C979.521 89.061 976.123 91.2577 972.784 91.0488C969.034 91.0558 965.412 87.8553 965.475 83.9998L965.474 83.9984Z" fill="#6F6F6F"/>
<path d="M946.563 77.4746C947.288 77.3108 948.11 77.2473 948.823 77.5C949.161 78.7424 948.879 80.1203 948.964 81.412C948.875 83.7273 949.347 86.2431 948.146 88.3523C947.169 90.1607 945.055 91.0388 943.074 91.0388C940.853 91.173 938.352 90.4431 937.074 88.4977C936.435 87.6012 936.326 86.4774 936.29 85.413C936.948 85.3537 937.605 85.2901 938.266 85.3424C938.757 85.8563 938.645 86.6892 939.05 87.2737C940.417 89.4365 944.174 89.901 945.686 87.6647C946.121 87.0393 946.293 86.2798 946.366 85.5358C946.634 82.8563 946.243 80.1315 946.563 77.4746Z" fill="#6F6F6F"/>
<path d="M982.024 77.6455C982.615 77.1245 983.455 77.3956 984.127 77.5791C984.064 79.5782 984.102 81.5758 984.093 83.5749C985.947 81.6436 987.866 79.7716 989.764 77.8841C990.548 76.9989 991.872 77.4747 992.901 77.3928C992.128 79.2394 990.259 80.366 988.992 81.8765C990.846 84.6125 992.734 87.3245 994.561 90.0831C993.721 90.5448 992.711 90.5518 991.804 90.3245C990.128 88.2252 988.772 85.8888 987.123 83.7669C986.19 84.8356 985.097 85.7575 984.191 86.8516C983.889 87.8158 984.37 88.9467 983.823 89.8516C983.317 90.5547 982.351 90.4092 981.604 90.429C981.44 87.0492 981.579 83.6638 981.518 80.2798C981.574 79.3975 981.35 78.3443 982.024 77.6455Z" fill="#6F6F6F"/>
<path d="M995.208 78.4601C995.156 77.9052 995.621 77.325 996.208 77.3885C998.686 77.3518 1001.17 77.3843 1003.64 77.373C1004.18 77.3434 1004.93 77.462 1005.01 78.1241C1005.25 78.7382 1004.66 79.4455 1004.02 79.3452C1001.93 79.3791 999.846 79.3523 997.761 79.341C997.75 80.3984 997.757 81.4516 997.743 82.5076C999.698 82.5711 1001.67 82.3777 1003.61 82.5965C1004.53 82.7942 1004.57 84.2596 1003.63 84.4911C1001.68 84.5956 999.716 84.5024 997.757 84.5208C997.746 85.8125 997.757 87.1071 997.753 88.4017C999.974 88.3791 1002.19 88.4172 1004.42 88.3721C1005.16 88.845 1005.32 90.0238 1004.37 90.3627C1001.66 90.5151 998.924 90.4262 996.208 90.4078C995.554 90.4643 995.134 89.8092 995.213 89.2135C995.197 85.629 995.201 82.0417 995.208 78.4587V78.4601Z" fill="#6F6F6F"/>
<path d="M1005.87 77.4336C1006.76 77.404 1008.05 77.02 1008.58 77.9885C1009.62 79.708 1010.69 81.419 1011.63 83.195C1013.09 81.4303 1014.14 79.3692 1015.58 77.5946C1016.36 77.1287 1017.35 77.4534 1018.21 77.4153C1018.14 78.0068 1018.1 78.6435 1017.7 79.1278C1016.17 81.3118 1014.68 83.5296 1013.13 85.7038C1013.09 87.0096 1013.18 88.3169 1013.08 89.6186C1012.86 90.6421 1011.22 90.7353 1010.67 89.9348C1010.33 88.5541 1010.79 87.0802 1010.44 85.7108C1009.06 83.4068 1007.57 81.1706 1006.15 78.8934C1005.94 78.4656 1005.32 77.8628 1005.87 77.435L1005.87 77.4336Z" fill="#6F6F6F"/>
<path d="M1105.02 76.6643H1117.11L1116.54 78.6397H1112.07L1108.24 91.3761H1105.96L1109.76 78.6397H1104.49L1105.02 76.6643Z" fill="#6F6F6F"/>
<path d="M1101.14 76.6643H1103.46L1099.07 91.3761H1096.72L1101.14 76.6643Z" fill="#6F6F6F"/>
<path d="M1085.41 88.6187L1093 76.6643H1096.7L1092.8 91.3761H1090.56L1094.04 78.4952L1085.75 91.3761H1083.54L1082.87 78.4731L1079.06 91.3761H1076.94L1081.45 76.6643H1084.99L1085.41 88.6187Z" fill="#6F6F6F"/>
<path d="M1114.91 91.3761L1118.85 76.6643H1128.79L1128.15 79.08H1121.39L1120.45 82.5922H1126.79L1126.15 85.0079H1119.81L1118.75 88.9604H1126.19L1125.53 91.3761H1114.91Z" fill="#6F6F6F"/>
<path d="M1167.45 77.3153C1164.14 72.2204 1160.28 68.6198 1156.42 66.1174C1151.16 62.6919 1145.9 61.286 1142 60.7811L1141.93 60.759C1137.98 61.3302 1134.29 63.02 1131.08 65.7876C1129.43 67.2156 1127.61 69.344 1126.21 71.3874L1129.41 72.5298L1121.09 77.3391L1118.07 66.3384L1121.2 68.8204C1123.82 64.6486 1126.97 62.0799 1130.9 60.7182C1135.2 59.2256 1140.42 59.2256 1146.81 60.1028C1147.12 60.1249 1147.41 60.1691 1147.72 60.2133C1153.98 60.9596 1160.59 64.21 1167.01 69.9628C1169.53 72.268 1172.02 74.9251 1174.44 77.9987C1174.37 78.065 1174.15 78.2401 1174.15 78.2401L1167.45 77.3187L1167.45 77.3153Z" fill="url(#paint0_linear_8_545)"/>
<path d="M1118.87 67.5898L1121.36 76.5046L1128.19 72.5963L1125.37 71.6307C1126.88 69.3476 1128.97 66.954 1130.79 65.373C1134.27 62.3436 1138.31 60.5858 1142.66 60.1693C1138.18 59.8174 1134.36 60.103 1131.1 61.2233C1127.15 62.585 1123.98 65.1979 1121.33 69.5669L1118.87 67.5915L1118.87 67.5898Z" fill="#6F6F6F"/>
<path d="M1173.67 77.7115C1171.43 74.9014 1169.1 72.4636 1166.75 70.3556C1160.44 64.6691 1153.92 61.4629 1147.77 60.7166C1147.55 60.6945 1147.35 60.6724 1147.13 60.6503V60.6724C1147.04 60.6503 1146.95 60.6503 1146.86 60.6282C1145.84 60.5398 1144.84 60.5177 1143.84 60.584C1147.52 61.2861 1152.05 62.7583 1156.6 65.6993C1160.46 68.2017 1164.33 71.7819 1167.68 76.853L1173.67 77.7098L1173.67 77.7115Z" fill="#6F6F6F"/>
<path d="M1144.79 78.876C1144.77 78.8318 1144.77 78.7876 1144.75 78.7451C1144.55 78.1076 1144.17 77.6248 1143.61 77.3392C1143.08 77.0315 1142.44 76.8122 1141.73 76.6813C1141.02 76.5283 1140.22 76.462 1139.33 76.462C1137.98 76.462 1136.73 76.615 1135.67 76.9448C1134.58 77.2746 1133.65 77.7574 1132.87 78.3932C1132.1 79.029 1131.43 79.7107 1130.88 80.4128C1130.32 81.1149 1129.88 81.8408 1129.54 82.6092C1129.5 82.6755 1129.48 82.7401 1129.43 82.8285C1129.41 82.8948 1129.39 82.9594 1129.37 83.0257C1129.32 83.1141 1129.3 83.1787 1129.28 83.245C1129.25 83.3113 1129.23 83.3759 1129.21 83.4643C1129.16 83.5527 1129.14 83.6394 1129.12 83.7278C1129.1 83.8162 1129.08 83.9029 1129.03 83.9913C1129.01 84.0355 1129.01 84.0797 1128.99 84.1222C1128.96 84.1664 1128.96 84.2106 1128.94 84.2531C1128.63 85.3955 1128.54 86.4274 1128.65 87.3488C1128.76 88.2498 1129.1 89.0403 1129.65 89.7203C1130.21 90.3782 1130.92 90.8627 1131.78 91.2129C1132.63 91.5427 1133.65 91.7178 1134.8 91.7178C1135.02 91.7178 1135.24 91.7178 1135.47 91.6957C1135.69 91.6957 1135.93 91.6736 1136.2 91.6736C1136.44 91.6515 1136.66 91.6515 1136.93 91.6294C1137.17 91.6294 1137.44 91.6073 1137.68 91.5852C1138.08 91.541 1138.48 91.4968 1138.88 91.4543C1139.3 91.4101 1139.7 91.3438 1140.08 91.3234C1140.48 91.2792 1140.83 91.2129 1141.19 91.1483C1141.52 91.082 1141.85 90.9953 1142.14 90.9069L1144.25 83.0308H1137.15L1136.32 86.1044H1139.23L1138.58 88.5116C1138.36 88.5558 1138.16 88.6204 1137.99 88.6425C1137.81 88.6867 1137.61 88.7088 1137.41 88.7513C1137.23 88.7734 1137.03 88.7955 1136.88 88.8176C1136.7 88.8397 1136.55 88.8397 1136.39 88.8397C1135.75 88.8397 1135.18 88.7309 1134.73 88.5337C1134.27 88.3365 1133.92 88.0305 1133.67 87.6582C1133.41 87.2638 1133.25 86.8269 1133.21 86.2795C1133.16 85.7542 1133.23 85.1847 1133.38 84.5506C1133.41 84.5285 1133.41 84.4843 1133.43 84.4418C1133.43 84.4197 1133.45 84.3755 1133.45 84.3551C1133.47 84.333 1133.47 84.2888 1133.47 84.2684C1133.5 84.2242 1133.5 84.2021 1133.52 84.1596C1133.7 83.5476 1133.94 82.956 1134.23 82.4086C1134.51 81.8612 1134.85 81.3138 1135.22 80.8106C1135.62 80.3074 1136.06 79.913 1136.59 79.6733C1137.12 79.4115 1137.7 79.301 1138.34 79.301H1138.53C1138.88 79.3214 1139.3 79.4234 1139.48 79.505C1139.69 79.5662 1139.87 79.6886 1140.02 79.8314C1140.18 79.9538 1140.31 80.117 1140.39 80.321C1140.47 80.525 1140.51 80.7698 1140.49 81.0571L1144.5 81.2764H1144.74C1144.96 80.2819 1144.96 79.4914 1144.78 78.876H1144.79Z" fill="#6F6F6F"/>
<path d="M1157.92 88.43C1157.95 87.8554 1157.98 87.4015 1158 87.1091C1158.02 86.7793 1158.03 86.2846 1157.97 85.6811C1157.93 85.2204 1157.71 84.8685 1157.33 84.6271C1156.95 84.3857 1156.4 84.2531 1155.66 84.2106C1156.17 84.1443 1156.66 83.9913 1157.11 83.8366C1157.55 83.6836 1158.02 83.4422 1158.44 83.1787C1158.86 82.9152 1159.22 82.5412 1159.5 82.1247C1159.79 81.6861 1160.02 81.1812 1160.19 80.5879C1160.37 79.8195 1160.41 79.182 1160.24 78.6771C1160.08 78.1722 1159.75 77.7982 1159.24 77.5347C1158.71 77.2933 1158.17 77.0961 1157.55 76.9635C1156.95 76.8326 1156.31 76.7442 1155.62 76.7442C1155.58 76.7442 1153.4 76.7 1153.4 76.6626H1148.61L1144.79 90.8848L1144.65 91.1551H1148.85L1150.36 85.7916L1152.29 85.8358C1152.67 85.8358 1153 85.9242 1153.22 86.0772C1153.29 86.1214 1153.35 86.2081 1153.4 86.2744C1153.49 86.4274 1153.55 86.6042 1153.55 86.8014C1153.6 87.1312 1153.57 87.4593 1153.55 87.8112C1153.51 88.141 1153.22 89.7662 1153.17 89.9413C1153.13 90.1164 1153.11 90.2932 1153.06 90.4683C1153.04 90.6434 1153.02 90.8202 1153.02 90.9732C1153.02 91.1262 1153.04 91.2367 1153.06 91.3744H1157.57M1155.59 81.3546C1155.52 81.6844 1155.39 81.9479 1155.23 82.1451C1155.08 82.3644 1154.88 82.497 1154.64 82.6058C1154.5 82.65 1154.39 82.7163 1154.28 82.7588C1154.15 82.803 1154.04 82.8251 1153.9 82.8693C1153.73 82.9203 1153.51 82.9679 1153.27 82.9883C1153.07 83.0036 1152.9 83.0002 1152.75 82.9883C1152.22 82.9713 1151.68 82.9526 1151.15 82.9356L1151.99 79.7362C1152.3 79.7447 1152.61 79.7515 1152.92 79.7583C1153.2 79.7634 1153.47 79.7685 1153.75 79.7736C1154.06 79.7736 1154.35 79.8178 1154.59 79.8841C1154.83 79.9504 1155.06 80.0371 1155.26 80.1697C1155.43 80.3006 1155.57 80.4774 1155.61 80.6746C1155.6 80.9007 1155.6 81.1285 1155.59 81.3546H1155.59Z" fill="#6F6F6F"/>
<path d="M1161.09 84.6119C1161.09 84.634 1161.07 84.6561 1161.07 84.6782C1161.04 84.7003 1160.82 86.4564 1160.91 87.269C1160.98 88.0595 1161.2 88.8279 1161.53 89.5521C1161.88 90.2763 1162.52 90.8254 1163.45 91.1773C1164.38 91.5292 1165.62 91.7043 1167.17 91.7043C1167.76 91.7043 1168.4 91.6601 1168.93 91.5938H1168.98C1169.44 91.5275 1169.86 91.4408 1170.26 91.3303C1171.17 91.0668 1171.94 90.6928 1172.6 90.1454C1173.27 89.6184 1173.84 89.0693 1174.35 88.476C1174.86 87.9048 1175.25 87.2911 1175.61 86.6315C1175.65 86.521 1175.72 86.4122 1175.76 86.3017C1175.81 86.1912 1175.87 86.0824 1175.92 85.9498C1175.96 85.8393 1176 85.7305 1176.05 85.62C1176.09 85.5095 1176.16 85.4007 1176.18 85.2902C1176.27 85.0709 1176.34 84.8737 1176.4 84.6527C1176.47 84.4555 1176.54 84.2362 1176.58 84.0373C1176.91 82.8728 1177.07 81.863 1177.09 80.9858V80.8549C1177.11 80.7444 1177.11 80.5693 1177.09 80.3721C1176.98 79.3623 1176.65 78.5939 1176.05 78.089C1175.45 77.5841 1174.79 77.188 1174.04 76.9041C1173.31 76.6406 1172.49 76.4876 1171.63 76.4434H1171.14C1170.35 76.4434 1169.58 76.4876 1168.88 76.5964C1168.15 76.7069 1167.5 76.8378 1166.91 77.0571C1166.53 77.1965 1165.28 77.6895 1164.03 78.8574C1162.97 79.8536 1162.44 80.8498 1162.15 81.404C1161.53 82.6093 1161.25 83.716 1161.13 84.4878C1161.11 84.5286 1161.1 84.5694 1161.09 84.6102L1161.09 84.6119ZM1172.18 84.0781C1171.97 84.8754 1171.73 85.5418 1171.42 86.1453C1171.12 86.7267 1170.79 87.2214 1170.42 87.609C1170.05 87.9966 1169.64 88.2975 1169.18 88.4913C1169.07 88.5338 1168.99 88.5559 1168.88 88.5984C1168.51 88.7276 1168.14 88.7701 1167.75 88.7701C1167.16 88.7701 1166.66 88.6409 1166.31 88.4046C1165.94 88.1683 1165.68 87.8011 1165.53 87.3064C1165.37 86.8117 1165.31 86.317 1165.31 85.756C1165.31 85.195 1165.37 84.6578 1165.55 84.056V84.0985C1165.74 83.5171 1165.98 82.9578 1166.27 82.4189C1166.55 81.88 1166.88 81.3649 1167.25 80.8685C1167.62 80.3738 1168.05 80.0066 1168.53 79.7703C1168.64 79.7057 1168.86 79.619 1168.99 79.5765C1169.34 79.4694 1169.7 79.4048 1170.12 79.4048C1170.7 79.4048 1171.18 79.534 1171.53 79.7703C1171.9 80.0066 1172.14 80.3517 1172.27 80.8243C1172.42 81.2765 1172.49 81.7933 1172.47 82.3305C1172.45 82.8694 1172.36 83.4712 1172.18 84.0747V84.0781Z" fill="#6F6F6F"/>
<path d="M1137.56 93.3515C1141.53 97.9092 1145.83 100.918 1149.99 102.838C1155.64 105.476 1161.01 106.153 1164.94 106.086H1165.1C1168.92 104.974 1172.33 102.775 1175.13 99.531C1176.57 97.8429 1178.06 95.4646 1179.17 93.2427L1175.84 92.5542L1183.41 86.577L1187.98 97.1544L1184.52 95.1093C1182.52 99.6874 1179.75 102.686 1176.08 104.575C1172 106.686 1166.85 107.419 1160.39 107.419C1160.08 107.441 1159.79 107.463 1159.48 107.463C1153.2 107.596 1146.17 105.263 1139 100.396C1136.16 98.4634 1133.31 96.1514 1130.5 93.4195C1130.56 93.3311 1130.74 93.1084 1130.74 93.1305L1137.47 93.3498H1137.56V93.3515Z" fill="url(#paint1_linear_8_545)"/>
<path d="M1186.96 96.1548L1183.25 87.6565L1177.04 92.4658L1179.97 93.037C1178.81 95.519 1177.08 98.1744 1175.51 99.9747C1172.47 103.466 1168.72 105.75 1164.5 106.781C1168.96 106.496 1172.71 105.705 1175.77 104.124C1179.5 102.214 1182.28 99.1842 1184.25 94.5075L1186.96 96.1548H1186.96Z" fill="#6F6F6F"/>
<path d="M1131.26 93.7902C1133.9 96.2501 1136.54 98.3581 1139.16 100.136C1146.22 104.879 1153.16 107.118 1159.36 107.009C1159.58 107.009 1159.78 106.987 1160 106.987V106.965H1160.27C1161.29 106.921 1162.29 106.79 1163.26 106.591C1159.53 106.416 1154.83 105.581 1149.92 103.298C1145.73 101.343 1141.4 98.336 1137.38 93.7902H1131.26Z" fill="#6F6F6F"/>
<g clip-path="url(#clip4_8_545)">
<path fill-rule="evenodd" clip-rule="evenodd" d="M1311.49 87.1206L1314.91 78.0528L1318.26 87.1206H1311.49ZM1309.94 71.7695L1300.15 94.3017H1308.58L1309.39 92.3206H1320.35L1321.3 94.3017H1329.59L1319.8 71.7695H1309.94Z" fill="#6F6F6F" stroke="#6F6F6F" stroke-width="1.06" stroke-miterlimit="3.86"/>
<path d="M1244.11 87.7387C1244.11 93.1893 1250.8 95.2082 1258.7 95.2082C1266.59 95.2082 1273.46 93.3953 1273.46 87.5413C1273.46 83.3696 1270.17 81.3765 1265.17 80.7481C1258.21 79.8743 1254 79.4983 1254 77.7129C1254 75.7026 1262.02 75.5619 1262.02 78.5782H1272.55C1272.51 73.373 1265.62 71.1361 1258.79 71.1361C1252.35 71.1361 1244.84 72.537 1244.79 78.1644C1244.75 82.4013 1247.35 84.2434 1252.26 85.1842C1257.22 86.1232 1263.49 86.0391 1263.49 88.0786C1263.49 90.8408 1255.4 90.5026 1255.4 87.7404H1244.11V87.7387Z" fill="#6F6F6F"/>
<path fill-rule="evenodd" clip-rule="evenodd" d="M1275.97 94.3017H1284.81V87.1206H1292.71C1300.39 87.1206 1303.3 84.5266 1303.3 79.3936C1303.3 73.9189 1299.22 71.7678 1292.71 71.7678H1275.97V94.3V94.3017ZM1284.81 77.2167H1290.31C1292.65 77.2167 1294.42 77.9103 1294.42 79.6408C1294.42 81.3713 1292.7 81.9223 1290.31 81.9223H1284.81V77.2185V77.2167Z" fill="#6F6F6F" stroke="#6F6F6F" stroke-width="1.06" stroke-miterlimit="3.86"/>
<path d="M1338.91 90.9061L1344.02 96.0494L1349.64 90.3756L1344.41 85.0932C1343.53 84.2194 1343.51 82.7584 1344.39 81.8846L1349.64 76.6211L1344.01 70.9473L1338.9 76.1095C1338.03 76.9833 1336.47 77.076 1335.59 76.1936L1330.39 70.949L1324.76 76.6228L1329.95 81.8863C1330.83 82.7601 1330.75 84.2863 1329.87 85.1601L1324.75 90.3773L1330.39 96.0511L1335.59 90.7584C1336.47 89.8743 1337.88 89.8743 1338.75 90.7584L1338.91 90.9078V90.9061Z" fill="#6F6F6F" stroke="#6F6F6F" stroke-width="1.06" stroke-miterlimit="3.86"/>
<path fill-rule="evenodd" clip-rule="evenodd" d="M1360.87 67.064H1362.43C1362.93 67.064 1363.38 67.2031 1363.38 67.9052C1363.38 68.4889 1363.06 68.7962 1362.45 68.7962H1360.87V67.0623V67.064ZM1360.13 71.7679H1360.87V69.5396H1362.25C1363.11 69.5396 1363.32 69.9825 1363.32 70.9679C1363.32 71.2374 1363.32 71.5379 1363.46 71.7679H1364.66C1364.45 71.5447 1364.36 70.961 1364.36 70.3276C1364.36 69.4709 1363.89 69.2288 1363.57 69.1791V69.1602C1363.74 69.1018 1364.45 68.8391 1364.45 67.7885C1364.45 66.8649 1363.85 66.319 1362.68 66.319H1360.13V71.7662L1360.13 71.7679Z" fill="#6F6F6F" stroke="#6F6F6F" stroke-width="0.53" stroke-miterlimit="3.86"/>
<path d="M1357.74 69.0039C1357.74 66.6228 1359.66 64.6794 1362.03 64.6794C1364.4 64.6794 1366.32 66.6228 1366.32 69.0039C1366.32 71.385 1364.4 73.3387 1362.03 73.3387C1359.66 73.3387 1357.74 71.3953 1357.74 69.0039Z" stroke="#6F6F6F" stroke-width="2.62" stroke-miterlimit="3.86"/>
<path d="M1318.55 83.4932C1318.55 73.1052 1326.89 64.6777 1337.18 64.6777C1347.47 64.6777 1355.83 73.1035 1355.83 83.4932C1355.83 93.8829 1347.48 102.298 1337.18 102.298C1326.88 102.298 1318.55 93.8812 1318.55 83.4932Z" stroke="#6F6F6F" stroke-width="4.92" stroke-miterlimit="3.86"/>
<path d="M1357.74 69.0039C1357.74 66.6228 1359.66 64.6794 1362.03 64.6794C1364.4 64.6794 1366.32 66.6228 1366.32 69.0039C1366.32 71.385 1364.4 73.3387 1362.03 73.3387C1359.66 73.3387 1357.74 71.3953 1357.74 69.0039Z" stroke="#6F6F6F" stroke-width="3.19" stroke-miterlimit="3.86"/>
<path d="M1318.55 83.4932C1318.55 73.1052 1326.89 64.6777 1337.18 64.6777C1347.47 64.6777 1355.83 73.1035 1355.83 83.4932C1355.83 93.8829 1347.48 102.298 1337.18 102.298C1326.88 102.298 1318.55 93.8812 1318.55 83.4932Z" stroke="#6F6F6F" stroke-width="5.86" stroke-miterlimit="3.86"/>
</g>
<path d="M1453.33 57.774V63.9831H1441.05C1442.66 67.4238 1444.67 70.7063 1446.95 73.7514H1442.47C1447.03 80.5537 1452.27 86.8418 1458.09 92.5368H1450.02C1444.28 86.9209 1439.28 80.5933 1435.15 73.7119H1439.87C1437.66 70.7063 1435.74 67.5029 1434.2 64.1017C1433.3 62.1243 1432.71 59.9887 1432.55 57.8136L1453.33 57.774Z" fill="#6F6F6F"/>
<path d="M1446.68 101.198V104.718H1443.33V101.198H1442.35V109.661H1443.33V105.785H1446.68V109.661H1447.7V101.198H1446.68Z" fill="#6F6F6F"/>
<path d="M1436.84 102.266C1437.55 101.475 1438.41 101.079 1439.51 101.079C1439.83 101.079 1440.11 101.119 1440.34 101.158C1440.58 101.198 1440.81 101.316 1441.09 101.435L1441.01 102.621C1440.58 102.305 1440.11 102.147 1439.55 102.147C1438.77 102.147 1438.1 102.463 1437.63 103.096C1437.11 103.729 1436.88 104.52 1436.88 105.469C1436.88 106.418 1437.11 107.249 1437.63 107.881C1438.14 108.475 1438.77 108.791 1439.51 108.791C1439.79 108.791 1440.03 108.751 1440.34 108.672C1440.62 108.593 1440.85 108.475 1441.05 108.356L1441.13 109.542C1440.89 109.661 1440.62 109.74 1440.38 109.78C1440.11 109.819 1439.83 109.859 1439.55 109.859C1438.41 109.859 1437.55 109.463 1436.88 108.672C1436.21 107.881 1435.89 106.814 1435.89 105.429C1435.81 104.085 1436.17 103.057 1436.84 102.266Z" fill="#6F6F6F"/>
<path d="M1434.4 101.198H1433.41V109.661H1434.4V101.198Z" fill="#6F6F6F"/>
<path d="M1430.89 106.299C1430.78 106.062 1430.7 105.864 1430.58 105.746C1430.46 105.627 1430.34 105.508 1430.23 105.429C1430.66 105.35 1431.01 105.113 1431.25 104.757C1431.52 104.401 1431.64 104.006 1431.64 103.492C1431.64 102.582 1431.37 101.949 1430.82 101.593C1430.42 101.356 1429.79 101.198 1428.97 101.198H1427.23V109.661H1428.22V105.904H1428.81C1429.12 105.904 1429.36 105.944 1429.48 106.023C1429.67 106.141 1429.83 106.379 1429.99 106.734L1431.05 109.661H1432.19L1430.89 106.299ZM1429.08 104.836H1428.22V102.266H1429.16C1429.6 102.266 1429.95 102.384 1430.19 102.621C1430.42 102.859 1430.54 103.136 1430.54 103.531C1430.54 103.927 1430.38 104.283 1430.15 104.52C1429.91 104.718 1429.56 104.836 1429.08 104.836Z" fill="#6F6F6F"/>
<path d="M1421.76 101.198V109.661H1425.66V108.593H1422.75V105.785H1425.42V104.718H1422.75V102.266H1425.66V101.198H1421.76Z" fill="#6F6F6F"/>
</g>
<defs>
<linearGradient id="paint0_linear_8_545" x1="1117.2" y1="66.3809" x2="1174.16" y2="74.4729" gradientUnits="userSpaceOnUse">
<stop stop-color="#C6C6C6"/>
<stop offset="1" stop-color="#EDEDED"/>
</linearGradient>
<linearGradient id="paint1_linear_8_545" x1="1188.76" y1="97.0235" x2="1130.96" y2="97.0235" gradientUnits="userSpaceOnUse">
<stop stop-color="#C6C6C6"/>
<stop offset="1" stop-color="#EDEDED"/>
</linearGradient>
<clipPath id="clip0_8_545">
<path d="M0 0H1447V143C1447 156.255 1436.25 167 1423 167H24C10.7452 167 0 156.255 0 143V0Z" fill="white"/>
</clipPath>
<clipPath id="clip1_8_545">
<rect width="125" height="25" fill="white" transform="translate(-84 71)"/>
</clipPath>
<clipPath id="clip2_8_545">
<rect width="121" height="25" fill="white" transform="translate(600 71)"/>
</clipPath>
<clipPath id="clip3_8_545">
<rect width="84" height="62" fill="white" transform="translate(771 52.5)"/>
</clipPath>
<clipPath id="clip4_8_545">
<rect width="123" height="40" fill="white" transform="translate(1244 63.5)"/>
</clipPath>
</defs>
</svg>
